<?xml version="1.0" encoding="iso-8859-1"?>
<!-- Generator: Adobe Illustrator 17.1.0, SVG Export Plug-In . SVG Version: 6.00 Build 0)  -->
<!DOCTYPE svg PUBLIC "-//W3C//DTD SVG 1.1//EN" "http://www.w3.org/Graphics/SVG/1.1/DTD/svg11.dtd">
<svg version="1.1" id="&#x5716;&#x5C64;_1" xmlns="http://www.w3.org/2000/svg" xmlns:xlink="http://www.w3.org/1999/xlink" x="0px"
	 y="0px" viewBox="0 0 42.322 41.353" style="enable-background:new 0 0 42.322 41.353;" xml:space="preserve">
<linearGradient id="SVGID_1_" gradientUnits="userSpaceOnUse" x1="385.4631" y1="6.2892" x2="385.4631" y2="45.7">
	<stop  offset="0" style="stop-color:#93278F;stop-opacity:0.8"/>
	<stop  offset="0.3082" style="stop-color:#8A288F;stop-opacity:0.645"/>
	<stop  offset="0.8191" style="stop-color:#702C91;stop-opacity:0.3881"/>
	<stop  offset="0.9944" style="stop-color:#662D91;stop-opacity:0.3"/>
</linearGradient>
<circle style="fill:url(#SVGID_1_);" cx="385.463" cy="25.285" r="20.252"/>
<linearGradient id="SVGID_2_" gradientUnits="userSpaceOnUse" x1="94.0214" y1="92.1221" x2="94.0214" y2="128.0648">
	<stop  offset="0" style="stop-color:#ED1C24"/>
	<stop  offset="0.1614" style="stop-color:#E51D2D;stop-opacity:0.8864"/>
	<stop  offset="0.4297" style="stop-color:#D02047;stop-opacity:0.6975"/>
	<stop  offset="0.7697" style="stop-color:#AD2470;stop-opacity:0.4581"/>
	<stop  offset="0.9944" style="stop-color:#93278F;stop-opacity:0.3"/>
</linearGradient>
<polygon style="fill:url(#SVGID_2_);" points="83.021,121.096 75.773,116.2 67.521,97.096 87.606,87.631 110.021,91.596 
	116.175,99.465 120.521,123.096 104.342,128.033 "/>
<linearGradient id="SVGID_3_" gradientUnits="userSpaceOnUse" x1="385.4631" y1="93.0963" x2="385.4631" y2="129.5963">
	<stop  offset="0" style="stop-color:#ED1C24;stop-opacity:0.8"/>
	<stop  offset="1" style="stop-color:#F7931E;stop-opacity:0.3"/>
</linearGradient>
<path style="fill:url(#SVGID_3_);" d="M365.22,101.81c-4.488,8.504,0.936,20.181,12.116,26.082
	c11.18,5.901,23.882,3.791,28.37-4.713s-0.936-20.181-12.116-26.082C382.41,91.196,369.708,93.306,365.22,101.81z"/>
<linearGradient id="SVGID_4_" gradientUnits="userSpaceOnUse" x1="103.8317" y1="-291.595" x2="103.8317" y2="-249.095" gradientTransform="matrix(0.6921 -0.1089 -0.1089 1.3114 284.4486 560.2353)">
	<stop  offset="0" style="stop-color:#ED1C24"/>
	<stop  offset="0.1614" style="stop-color:#E51D2D;stop-opacity:0.8864"/>
	<stop  offset="0.4297" style="stop-color:#D02047;stop-opacity:0.6975"/>
	<stop  offset="0.7697" style="stop-color:#AD2470;stop-opacity:0.4581"/>
	<stop  offset="0.9944" style="stop-color:#93278F;stop-opacity:0.3"/>
</linearGradient>
<path style="fill:url(#SVGID_4_);" d="M380.34,227.884c6.384,1.09,13.853-11.462,16.682-28.035
	c2.829-16.573-0.052-30.892-6.436-31.982s-13.853,11.462-16.682,28.035C371.075,212.476,373.956,226.795,380.34,227.884z"/>
<linearGradient id="SVGID_5_" gradientUnits="userSpaceOnUse" x1="303.0083" y1="-60.773" x2="303.0083" y2="-17.7128" gradientTransform="matrix(0.9234 0.384 -0.384 0.9234 -276.5272 -56.6787)">
	<stop  offset="0" style="stop-color:#22B573;stop-opacity:0.8"/>
	<stop  offset="0.119" style="stop-color:#22AC72;stop-opacity:0.7402"/>
	<stop  offset="0.3169" style="stop-color:#209270;stop-opacity:0.6407"/>
	<stop  offset="0.5693" style="stop-color:#1F696C;stop-opacity:0.5138"/>
	<stop  offset="0.8633" style="stop-color:#1C3067;stop-opacity:0.3659"/>
	<stop  offset="0.9944" style="stop-color:#1B1464;stop-opacity:0.3"/>
</linearGradient>
<polygon style="fill:url(#SVGID_5_);" points="0,39.085 1.122,8.04 32.494,0.177 42.322,22.471 26.122,41.353 "/>
<linearGradient id="SVGID_6_" gradientUnits="userSpaceOnUse" x1="54.4711" y1="180.1911" x2="54.4711" y2="216.0674" gradientTransform="matrix(0.9719 0.2356 -0.2356 0.9719 164.8412 -183.4418)">
	<stop  offset="0" style="stop-color:#FBB03B;stop-opacity:0.8"/>
	<stop  offset="0.19" style="stop-color:#FAA738;stop-opacity:0.7045"/>
	<stop  offset="0.5059" style="stop-color:#F78D32;stop-opacity:0.5456"/>
	<stop  offset="0.9064" style="stop-color:#F26427;stop-opacity:0.3442"/>
	<stop  offset="0.9944" style="stop-color:#F15A24;stop-opacity:0.3"/>
</linearGradient>
<polygon style="fill:url(#SVGID_6_);" points="144.254,33.861 169.411,-1.536 189.51,44.832 "/>
<linearGradient id="SVGID_7_" gradientUnits="userSpaceOnUse" x1="71.8151" y1="268.1632" x2="71.8151" y2="305.9866" gradientTransform="matrix(0.9719 0.2356 -0.2356 0.9719 164.8412 -183.4418)">
	<stop  offset="0" style="stop-color:#22B573;stop-opacity:0.8"/>
	<stop  offset="0.119" style="stop-color:#22AC72;stop-opacity:0.7402"/>
	<stop  offset="0.3169" style="stop-color:#209270;stop-opacity:0.6407"/>
	<stop  offset="0.5693" style="stop-color:#1F696C;stop-opacity:0.5138"/>
	<stop  offset="0.8633" style="stop-color:#1C3067;stop-opacity:0.3659"/>
	<stop  offset="0.9944" style="stop-color:#1B1464;stop-opacity:0.3"/>
</linearGradient>
<polygon style="fill:url(#SVGID_7_);" points="146.407,89.096 170.907,89.096 187.357,136.832 "/>
<linearGradient id="SVGID_8_" gradientUnits="userSpaceOnUse" x1="21.1609" y1="93.1958" x2="21.1609" y2="133.8">
	<stop  offset="0" style="stop-color:#ED1E79;stop-opacity:0.8"/>
	<stop  offset="0.1837" style="stop-color:#E41F7B;stop-opacity:0.7076"/>
	<stop  offset="0.489" style="stop-color:#CA2182;stop-opacity:0.5541"/>
	<stop  offset="0.8761" style="stop-color:#A1268C;stop-opacity:0.3595"/>
	<stop  offset="0.9944" style="stop-color:#93278F;stop-opacity:0.3"/>
</linearGradient>
<polygon style="fill:url(#SVGID_8_);" points="4.814,133.765 2.371,110.602 26.483,88.123 39.951,118.786 21.182,131.939 "/>
<linearGradient id="SVGID_9_" gradientUnits="userSpaceOnUse" x1="239.7423" y1="5.9772" x2="239.7423" y2="46.9156">
	<stop  offset="0" style="stop-color:#00A99D;stop-opacity:0.8"/>
	<stop  offset="1" style="stop-color:#0071BC;stop-opacity:0.3"/>
</linearGradient>
<polygon style="fill:url(#SVGID_9_);" points="229.462,46.88 216.233,22.043 229.462,0.862 256.146,1.31 263.251,13.616 
	251.828,42.776 "/>
<linearGradient id="SVGID_10_" gradientUnits="userSpaceOnUse" x1="239.7422" y1="88.3207" x2="239.7422" y2="134.1362">
	<stop  offset="0" style="stop-color:#0071BC"/>
	<stop  offset="1" style="stop-color:#F7931E;stop-opacity:0.3"/>
</linearGradient>
<polygon style="fill:url(#SVGID_10_);" points="228.992,133.596 218.492,103.596 225.745,88.362 240.492,82.596 260.992,115.096 
	245.492,134.096 "/>
<linearGradient id="SVGID_11_" gradientUnits="userSpaceOnUse" x1="94.0214" y1="4.2521" x2="94.0214" y2="38.2842">
	<stop  offset="0" style="stop-color:#00A99D;stop-opacity:0.9"/>
	<stop  offset="1" style="stop-color:#ED1C24;stop-opacity:0.3"/>
</linearGradient>
<polygon style="fill:url(#SVGID_11_);" points="86.144,34.421 68.896,22.643 77.101,11.457 88.879,2.414 109.271,0 119.147,14.192 
	117.313,30.848 97.207,38.255 "/>
<linearGradient id="SVGID_12_" gradientUnits="userSpaceOnUse" x1="312.6027" y1="7.3146" x2="312.6027" y2="42.3828">
	<stop  offset="0" style="stop-color:#22B573;stop-opacity:0.8"/>
	<stop  offset="0.119" style="stop-color:#22AC72;stop-opacity:0.7402"/>
	<stop  offset="0.3169" style="stop-color:#209270;stop-opacity:0.6407"/>
	<stop  offset="0.5693" style="stop-color:#1F696C;stop-opacity:0.5138"/>
	<stop  offset="0.8633" style="stop-color:#1C3067;stop-opacity:0.3659"/>
	<stop  offset="0.9944" style="stop-color:#1B1464;stop-opacity:0.3"/>
</linearGradient>
<polygon style="fill:url(#SVGID_12_);" points="295.172,42.352 292.893,2.933 332.312,7.491 325.475,37.794 "/>
<linearGradient id="SVGID_13_" gradientUnits="userSpaceOnUse" x1="312.6027" y1="102.8079" x2="312.6027" y2="133.8208">
	<stop  offset="0" style="stop-color:#00A99D;stop-opacity:0.8"/>
	<stop  offset="1" style="stop-color:#0071BC;stop-opacity:0.3"/>
</linearGradient>
<polygon style="fill:url(#SVGID_13_);" points="288.603,105.096 300.105,98.933 336.603,99.096 332.686,133.794 "/>
<linearGradient id="SVGID_14_" gradientUnits="userSpaceOnUse" x1="94.0214" y1="176.5392" x2="94.0214" y2="221.8229">
	<stop  offset="0" style="stop-color:#ED1C24;stop-opacity:0.8"/>
	<stop  offset="1" style="stop-color:#F7931E;stop-opacity:0.3"/>
</linearGradient>
<polygon style="fill:url(#SVGID_14_);" points="88.364,208.004 79.272,206.875 72.603,182.806 88.837,170.881 99.771,181.596 
	111.927,185.79 115.439,215.563 102.362,221.783 "/>
<linearGradient id="SVGID_15_" gradientUnits="userSpaceOnUse" x1="86.5221" y1="349.3922" x2="86.5221" y2="399.3152" gradientTransform="matrix(0.9719 0.2356 -0.2356 0.9719 164.8412 -183.4418)">
	<stop  offset="0" style="stop-color:#ED1E79;stop-opacity:0.8"/>
	<stop  offset="0.1837" style="stop-color:#E41F7B;stop-opacity:0.7076"/>
	<stop  offset="0.489" style="stop-color:#CA2182;stop-opacity:0.5541"/>
	<stop  offset="0.8761" style="stop-color:#A1268C;stop-opacity:0.3595"/>
	<stop  offset="0.9944" style="stop-color:#93278F;stop-opacity:0.3"/>
</linearGradient>
<polygon style="fill:url(#SVGID_15_);" points="145.258,175.389 188.505,175.389 150.554,223.931 "/>
<linearGradient id="SVGID_16_" gradientUnits="userSpaceOnUse" x1="21.1609" y1="185.5654" x2="21.1609" y2="213.1203">
	<stop  offset="0" style="stop-color:#FBB03B;stop-opacity:0.9"/>
	<stop  offset="0.1342" style="stop-color:#F4A741;stop-opacity:0.819"/>
	<stop  offset="0.3574" style="stop-color:#E18D50;stop-opacity:0.6843"/>
	<stop  offset="0.642" style="stop-color:#C1646A;stop-opacity:0.5126"/>
	<stop  offset="0.9739" style="stop-color:#962B8D;stop-opacity:0.3123"/>
	<stop  offset="0.9944" style="stop-color:#93278F;stop-opacity:0.3"/>
</linearGradient>
<polygon style="fill:url(#SVGID_16_);" points="15.566,201.658 -8.879,198.014 29.669,182.123 51.201,203.798 21.194,213.096 "/>
<linearGradient id="SVGID_17_" gradientUnits="userSpaceOnUse" x1="239.7422" y1="180.7224" x2="239.7422" y2="218.2889">
	<stop  offset="0" style="stop-color:#8CC63F;stop-opacity:0.8"/>
	<stop  offset="0.1625" style="stop-color:#83C444;stop-opacity:0.7183"/>
	<stop  offset="0.4327" style="stop-color:#69C050;stop-opacity:0.5824"/>
	<stop  offset="0.7751" style="stop-color:#40BA64;stop-opacity:0.4103"/>
	<stop  offset="0.9944" style="stop-color:#22B573;stop-opacity:0.3"/>
</linearGradient>
<polygon style="fill:url(#SVGID_17_);" points="235.205,218.256 215.492,201.468 232.283,176.029 253.372,183.017 263.992,200.986 
	237.462,205.98 "/>
<linearGradient id="SVGID_18_" gradientUnits="userSpaceOnUse" x1="312.6027" y1="181.3083" x2="312.6027" y2="220.3277">
	<stop  offset="0" style="stop-color:#FBB03B;stop-opacity:0.9"/>
	<stop  offset="0.1342" style="stop-color:#F4A741;stop-opacity:0.819"/>
	<stop  offset="0.3574" style="stop-color:#E18D50;stop-opacity:0.6843"/>
	<stop  offset="0.642" style="stop-color:#C1646A;stop-opacity:0.5126"/>
	<stop  offset="0.9739" style="stop-color:#962B8D;stop-opacity:0.3123"/>
	<stop  offset="0.9944" style="stop-color:#93278F;stop-opacity:0.3"/>
</linearGradient>
<polygon style="fill:url(#SVGID_18_);" points="314.174,188.591 286.497,176.433 338.708,181.042 327.49,220.294 "/>
</svg>
